<?xml version="1.0" standalone="no"?>
<!DOCTYPE svg PUBLIC "-//W3C//DTD SVG 20010904//EN"
 "http://www.w3.org/TR/2001/REC-SVG-20010904/DTD/svg10.dtd">
<svg version="1.0" xmlns="http://www.w3.org/2000/svg"
 width="1546.000000pt" height="1524.000000pt" viewBox="0 0 1546.000000 1524.000000"
 preserveAspectRatio="xMidYMid meet">
<metadata>
Created by potrace 1.16, written by Peter Selinger 2001-2019
</metadata>
<g transform="translate(0.000000,1524.000000) scale(0.100000,-0.100000)"
fill="#000000" stroke="none">
<path d="M3040 12640 c-8 -11 -20 -20 -26 -20 -13 0 -504 -489 -504 -503 0 -5
-22 -30 -50 -56 -27 -26 -50 -50 -50 -54 0 -3 -10 -17 -22 -30 -54 -55 -118
-132 -118 -141 0 -5 -8 -15 -17 -23 -16 -12 -14 -12 10 -2 15 7 27 17 27 23 0
6 14 24 30 39 17 16 30 33 30 39 0 5 19 29 43 53 23 24 60 65 82 91 22 27 147
156 278 288 130 131 237 243 237 248 0 4 7 8 15 8 15 0 65 42 65 55 0 12 -16
4 -30 -15z"/>
<path d="M14298 4787 c-16 -29 -28 -56 -28 -60 0 -4 -10 -29 -21 -55 -42 -94
-49 -110 -49 -118 0 -4 -16 -42 -36 -83 -20 -42 -40 -85 -44 -96 -30 -73 -36
-85 -41 -85 -4 0 -10 -16 -14 -36 -3 -20 -16 -46 -28 -58 -12 -11 -28 -33 -35
-48 -31 -71 -37 -83 -42 -88 -12 -12 -30 -62 -25 -71 4 -5 2 -9 -3 -9 -13 0
-64 -79 -57 -89 2 -5 -2 -12 -11 -15 -9 -3 -14 -12 -11 -19 3 -7 -6 -23 -19
-36 -13 -13 -24 -31 -24 -41 0 -20 -33 -36 -50 -25 -13 8 -13 -1 0 -25 8 -15
6 -24 -10 -40 -11 -11 -20 -27 -20 -35 0 -8 -4 -15 -10 -15 -13 0 -70 -90 -70
-112 0 -10 -4 -18 -10 -18 -5 0 -10 -7 -10 -15 0 -21 19 -19 27 3 4 9 12 22
17 28 30 33 46 56 46 67 0 7 9 23 20 35 11 11 29 37 40 56 11 20 30 53 42 74
11 20 34 62 50 92 16 30 32 57 36 60 14 11 272 518 272 535 0 17 24 65 33 65
4 0 7 9 7 19 0 11 8 36 19 58 10 21 28 58 40 81 11 24 21 52 21 63 0 10 5 19
10 19 6 0 10 11 10 24 0 14 5 28 10 31 12 7 14 35 3 35 -5 0 -20 -24 -35 -53z"/>
<path d="M13458 3245 c-16 -13 -28 -28 -28 -33 0 -5 -18 -28 -40 -52 -22 -24
-40 -48 -40 -54 0 -6 -9 -17 -20 -24 -11 -7 -20 -21 -20 -32 0 -13 -14 -27
-40 -40 -23 -12 -44 -29 -47 -38 -9 -23 -65 -106 -75 -110 -4 -2 -8 -10 -8
-18 0 -8 -6 -14 -13 -12 -8 2 -40 -28 -73 -67 -32 -38 -66 -76 -76 -83 -10 -7
-18 -19 -18 -27 0 -23 -462 -495 -485 -495 -7 0 -16 -8 -19 -17 -3 -10 -22
-31 -42 -48 -20 -16 -57 -49 -81 -73 -25 -23 -49 -40 -53 -37 -5 3 -19 -5 -33
-17 -13 -13 -32 -31 -43 -40 -10 -9 -23 -22 -29 -27 -29 -29 -94 -81 -101 -81
-5 0 -20 -16 -34 -36 -14 -20 -37 -37 -53 -41 -15 -3 -36 -17 -47 -31 -11 -13
-20 -21 -20 -18 0 4 -17 -5 -37 -21 -21 -16 -50 -35 -65 -42 -16 -8 -28 -19
-28 -25 0 -7 -12 -17 -27 -24 -52 -23 -131 -71 -156 -94 -14 -13 -60 -41 -101
-63 -41 -21 -77 -44 -80 -52 -3 -7 -12 -13 -20 -13 -8 0 -23 -11 -33 -24 -11
-13 -33 -27 -50 -30 -34 -8 -94 -57 -77 -63 13 -4 99 41 199 105 197 126 293
188 317 207 15 11 46 34 70 51 75 54 282 207 298 221 8 7 27 23 41 36 14 13
30 26 36 28 6 2 66 54 133 114 67 61 132 115 144 122 29 17 506 496 506 510 0
6 19 28 43 49 23 21 51 51 62 66 11 15 55 69 99 120 102 122 100 119 179 221
37 48 67 91 67 96 0 5 4 11 8 13 12 5 54 68 45 68 -4 0 -20 -12 -35 -25z"/>
<path d="M2507 2643 c7 -22 479 -499 509 -516 12 -7 75 -60 140 -118 111 -99
220 -191 275 -231 40 -28 133 -97 154 -113 96 -73 207 -149 462 -312 28 -18
56 -33 62 -33 6 0 11 -3 11 -8 0 -4 30 -23 68 -42 37 -19 69 -38 72 -41 19
-22 533 -281 648 -326 6 -3 12 2 12 11 0 9 -8 16 -19 16 -10 0 -24 7 -31 15
-7 8 -16 12 -21 9 -5 -3 -9 0 -9 5 0 6 -5 11 -10 11 -11 0 -80 29 -143 61 -22
10 -45 19 -53 19 -8 0 -14 5 -14 10 0 6 -7 10 -16 10 -9 0 -27 11 -39 24 -12
12 -37 26 -57 30 -20 4 -39 13 -42 22 -4 10 -13 13 -25 9 -13 -4 -23 2 -34 19
-9 14 -30 26 -50 30 -19 4 -38 13 -41 21 -3 8 -17 15 -32 15 -17 0 -28 6 -31
20 -3 11 -13 20 -23 20 -9 0 -25 9 -35 20 -10 11 -23 19 -29 17 -17 -6 -46 12
-46 28 0 9 -9 15 -21 15 -28 0 -79 31 -79 48 0 8 -6 12 -15 8 -9 -3 -30 9 -51
28 -20 19 -54 40 -76 47 -21 7 -42 18 -46 24 -12 20 -78 65 -95 65 -9 0 -29
13 -43 29 -14 16 -31 28 -38 25 -6 -2 -21 11 -33 30 -17 26 -27 33 -43 29 -14
-4 -20 -1 -20 11 0 9 -13 22 -28 29 -29 13 -49 27 -87 65 -12 12 -27 22 -34
22 -6 0 -11 4 -11 10 0 5 -20 18 -45 29 -25 11 -45 25 -45 31 0 15 -78 90 -94
90 -6 0 -27 18 -46 40 -19 22 -40 40 -46 40 -7 0 -23 13 -36 28 -13 15 -31 31
-41 35 -9 3 -17 13 -17 22 0 8 -5 15 -11 15 -6 0 -50 41 -98 90 -49 50 -91 90
-94 90 -3 0 -47 43 -99 96 -51 53 -99 101 -106 108 -36 31 -68 70 -72 89 -4
13 -15 23 -28 25 -17 3 -21 0 -15 -15z"/>
<path d="M11163 1226 c-13 -7 -31 -20 -41 -29 -10 -10 -23 -17 -28 -17 -16 0
-64 -24 -64 -32 0 -5 -6 -8 -12 -8 -7 0 -24 -9 -38 -20 -14 -11 -33 -20 -43
-20 -11 0 -30 -9 -44 -20 -14 -11 -34 -20 -44 -20 -11 0 -19 -3 -19 -7 0 -9
-48 -33 -66 -33 -6 0 -14 -6 -17 -14 -3 -8 -21 -17 -39 -21 -18 -4 -61 -20
-96 -36 -34 -16 -66 -29 -70 -29 -5 0 -27 -9 -50 -20 -22 -11 -46 -20 -52 -20
-5 0 -10 -4 -10 -10 0 -5 -8 -10 -18 -10 -19 0 -125 -49 -130 -60 -1 -4 -14
-5 -28 -2 -15 3 -29 1 -33 -4 -9 -13 -58 -34 -80 -34 -9 0 -36 -9 -59 -20 -22
-11 -50 -20 -60 -20 -11 0 -25 -7 -32 -15 -6 -7 -33 -17 -58 -20 -26 -3 -55
-10 -64 -16 -10 -5 -29 -9 -43 -9 -14 0 -25 -4 -25 -10 0 -5 -14 -10 -30 -10
-17 0 -38 -4 -48 -9 -9 -5 -25 -12 -34 -15 -27 -8 -22 -36 6 -36 14 0 28 5 31
10 3 6 15 10 27 10 28 0 171 46 220 71 10 5 27 9 38 9 11 0 28 4 38 10 9 5 46
19 82 30 36 12 74 25 85 29 44 18 81 34 97 42 10 5 25 9 33 9 8 0 23 4 33 9
21 11 114 52 295 132 87 38 316 152 495 247 34 18 62 37 62 42 0 14 -40 11
-67 -4z"/>
</g>
</svg>
